[img]http://img853.imageshack.us/img853/9047/horrid.jpg[/img]
[code]
Horrid Henry 2011 DVDRiP AC3 5.1 XViD - U.S.M


SOURCES:

HORRID HENRY 2011 PAL DVDR Legend-Rg

IMDB:


[code]
www.imdb.com/title/tt1684555/

Plot:
Horrid Henry finds himself doing things he never ever thought he'd do, and then some.
Video
ID                               : 0
Format                           : MPEG-4 Visual
Format profile                   : Advanced Simple@L5
Format settings, BVOP            : 2
Format settings, QPel            : No
Format settings, GMC             : No warppoints
Format settings, Matrix          : Default (MPEG)
Muxing mode                      : Packed bitstream
Codec ID                         : XVID
Codec ID/Hint                    : XviD
Duration                         : 1h 29mn
Bit rate                         : 1 745 Kbps
Width                            : 720 pixels
Height                           : 384 pixels
Display aspect ratio             : 1.875
Frame rate                       : 25.000 fps
Color space                      : YUV
Chroma subsampling               : 4:2:0
Bit depth                        : 8 bits
Scan type                        : Progressive
Compression mode                 : Lossy
Bits/(Pixel*Frame)               : 0.252
Stream size                      : 1.09 GiB (79%)
Writing library                  : XviD 64

Audio
ID                               : 1
Format                           : AC-3
Format/Info                      : Audio Coding 3
Mode extension                   : CM (complete main)
Codec ID                         : 2000
Duration                         : 1h 29mn
Bit rate mode                    : Constant
Bit rate                         : 448 Kbps
Channel(s)                       : 6 channels
Channel positions                : Front: L C R, Side: L R, LFE
Sampling rate                    : 48.0 KHz
Bit depth                        : 16 bits
Compression mode                 : Lossy
Stream size                      : 285 MiB (20%)
Alignment                        : Aligned on interleaves
Interleave, duration             : 40 ms (1.00 video frame)
Interleave, preload duration     : 512 ms


WORKDONE:

Nice simple rip of the dvd,nothing fancy done...no tweaking.Only thing i needed to do was when remuxing the audio it
was oos,so had to add 500ms to reline it back up.
Audio just stripped and remuxed.
Check sample for Q.
[/code]
Screens:
[img]http://img525.imageshack.us/img525/9086/21545282.png[/img]
[img]http://img256.imageshack.us/img256/1746/99358580.png[/img]
[img]http://img411.imageshack.us/img411/8587/30118142.png[/img]
[img]http://img560.imageshack.us/img560/686/x8cvb.png[/img]